<svg width="128" height="128" viewBox="0 0 128 128" fill="none" xmlns="http://www.w3.org/2000/svg">
<path fill-rule="evenodd" clip-rule="evenodd" d="M63.9756 14.25C57.3451 14.25 51.97 19.6251 51.97 26.2556V40.8366H75.9812V26.2556C75.9812 19.6251 70.6061 14.25 63.9756 14.25ZM63.9756 19.2769C60.4509 19.2769 57.5937 22.1341 57.5937 25.6588V33.1035H70.3575V25.6588C70.3575 22.1341 67.5002 19.2769 63.9756 19.2769Z" fill="black"/>
<path d="M24.8528 77.662C25.1284 75.0206 27.3549 73.0143 30.0106 73.0143C32.8747 73.0143 35.1965 75.3361 35.1965 78.2002V90.7931C35.1965 94.019 32.5813 96.6342 29.3554 96.6342C25.8896 96.6342 23.1861 93.6339 23.5458 90.1869L24.8528 77.662Z" fill="white"/>
<path fill-rule="evenodd" clip-rule="evenodd" d="M37.1964 78.2002V90.7931C37.1964 95.1236 33.6859 98.6342 29.3553 98.6342C24.7029 98.6342 21.0737 94.6066 21.5566 89.9793L22.8635 77.4544C23.2455 73.7944 26.3307 71.0143 30.0106 71.0143C33.9792 71.0143 37.1964 74.2315 37.1964 78.2002ZM30.0106 73.0143C27.3549 73.0143 25.1284 75.0206 24.8527 77.662L23.5458 90.1869C23.1861 93.6339 25.8896 96.6342 29.3553 96.6342C32.5813 96.6342 35.1964 94.019 35.1964 90.7931V78.2002C35.1964 75.3361 32.8746 73.0143 30.0106 73.0143Z" fill="black"/>
<path d="M103.147 77.662C102.872 75.0206 100.645 73.0143 97.9895 73.0143C95.1254 73.0143 92.8037 75.3361 92.8037 78.2002V90.7931C92.8037 94.019 95.4188 96.6342 98.6447 96.6342C102.11 96.6342 104.814 93.6339 104.454 90.1869L103.147 77.662Z" fill="white"/>
<path fill-rule="evenodd" clip-rule="evenodd" d="M90.8037 78.2002V90.7931C90.8037 95.1236 94.3143 98.6342 98.6448 98.6342C103.297 98.6342 106.926 94.6066 106.444 89.9793L105.137 77.4544C104.755 73.7944 101.669 71.0143 97.9895 71.0143C94.0209 71.0143 90.8037 74.2315 90.8037 78.2002ZM97.9895 73.0143C100.645 73.0143 102.872 75.0206 103.147 77.662L104.454 90.1869C104.814 93.6339 102.111 96.6342 98.6448 96.6342C95.4188 96.6342 92.8037 94.019 92.8037 90.7931V78.2002C92.8037 75.3361 95.1255 73.0143 97.9895 73.0143Z" fill="black"/>
<path d="M32.8133 52.4581C34.0315 37.9537 46.1596 26.8016 60.7151 26.8016H67.4152C81.9706 26.8016 94.0987 37.9537 95.3169 52.4582L98.8264 94.2435C99.7082 104.742 91.425 113.75 80.8896 113.75H47.2406C36.7053 113.75 28.422 104.742 29.3038 94.2435L32.8133 52.4581Z" fill="white"/>
<path fill-rule="evenodd" clip-rule="evenodd" d="M60.7151 24.8016H67.4152C83.0103 24.8016 96.0047 36.7503 97.3099 52.2908L100.819 94.0761C101.799 105.741 92.5956 115.75 80.8896 115.75H47.2407C35.5347 115.75 26.3311 105.741 27.3108 94.0761L30.8204 52.2907C32.1256 36.7503 45.12 24.8016 60.7151 24.8016ZM60.7151 26.8016C46.1596 26.8016 34.0316 37.9537 32.8133 52.4581L29.3038 94.2435C28.4221 104.742 36.7053 113.75 47.2407 113.75H80.8896C91.425 113.75 99.7082 104.742 98.8264 94.2435L95.3169 52.4582C94.0987 37.9537 81.9706 26.8016 67.4152 26.8016H60.7151Z" fill="black"/>
<path d="M50.7473 45.9286C50.7473 43.7195 52.5382 41.9286 54.7473 41.9286H73.3829C75.5921 41.9286 77.3829 43.7195 77.3829 45.9286V49.9253C77.3829 52.1344 75.5921 53.9253 73.3829 53.9253H54.7473C52.5382 53.9253 50.7473 52.1344 50.7473 49.9253V45.9286Z" fill="black"/>
<path d="M44.0402 103.129C45.8645 105.56 48.77 107.132 52.0427 107.132H83.162C88.6848 107.132 93.162 102.655 93.162 97.1319V85.1824C93.162 81.9096 91.5898 79.0041 89.1595 77.1798C89.3878 77.9232 89.5106 78.7128 89.5106 79.531V95.4805C89.5106 99.8988 85.9289 103.481 81.5106 103.481H46.3914C45.5731 103.481 44.7836 103.358 44.0402 103.129Z" fill="black"/>
<path fill-rule="evenodd" clip-rule="evenodd" d="M46.3914 69.531H81.5106C87.0335 69.531 91.5106 74.0081 91.5106 79.531V95.4805C91.5106 101.003 87.0335 105.48 81.5106 105.48H46.3914C40.8685 105.48 36.3914 101.003 36.3914 95.4805V79.531C36.3914 74.0081 40.8685 69.531 46.3914 69.531ZM46.3914 71.531C41.9731 71.531 38.3914 75.1127 38.3914 79.531V95.4805C38.3914 99.8988 41.9731 103.48 46.3914 103.48H81.5106C85.9289 103.48 89.5106 99.8988 89.5106 95.4805V79.531C89.5106 75.1127 85.9289 71.531 81.5106 71.531H46.3914Z" fill="black"/>
<path fill-rule="evenodd" clip-rule="evenodd" d="M37.2772 83.7402C37.2772 83.188 37.7249 82.7402 38.2772 82.7402H89.8529C90.4052 82.7402 90.8529 83.188 90.8529 83.7402C90.8529 84.2925 90.4052 84.7402 89.8529 84.7402H38.2772C37.7249 84.7402 37.2772 84.2925 37.2772 83.7402Z" fill="black"/>
<path d="M75.3224 81.8306C75.4356 81.0761 76.171 80.5119 77.0414 80.5119H77.3581C78.2284 80.5119 78.9639 81.0761 79.077 81.8306L80.1691 89.1111C80.4043 90.679 79.0084 92.07 77.1997 92.07C75.3911 92.07 73.9952 90.679 74.2304 89.1111L75.3224 81.8306Z" fill="black"/>
</svg>
