<svg width="13" height="16" viewBox="0 0 13 16" fill="none" xmlns="http://www.w3.org/2000/svg">
<path d="M6.17895 0C2.77277 0 0 2.77277 0 6.17895C0 6.56675 0.0355483 6.95778 0.109877 7.33912C0.113108 7.36174 0.126035 7.42961 0.151888 7.54595C0.245607 7.96283 0.384568 8.37325 0.565542 8.76429C1.23127 10.3316 2.69521 12.7392 5.90749 15.3181C5.98828 15.3827 6.08523 15.4151 6.18218 15.4151C6.27913 15.4151 6.37608 15.3827 6.45687 15.3181C9.66592 12.7392 11.1331 10.3316 11.7988 8.76429C11.9798 8.37325 12.1188 7.96606 12.2125 7.54595C12.2383 7.42961 12.2513 7.36174 12.2545 7.33912C12.3256 6.95778 12.3644 6.56675 12.3644 6.17895C12.3579 2.77277 9.58513 0 6.17895 0ZM11.3884 7.18723C11.3884 7.19369 11.3852 7.20016 11.3852 7.20662C11.3819 7.22278 11.3722 7.27125 11.3561 7.34558C11.3561 7.34881 11.3561 7.34881 11.3561 7.35205C11.2753 7.71399 11.1557 8.06625 10.9974 8.40557C10.9941 8.4088 10.9941 8.41527 10.9909 8.4185C10.3866 9.85013 9.0616 12.0347 6.17895 14.4165C3.2963 12.0347 1.97132 9.85013 1.367 8.4185C1.36376 8.41527 1.36376 8.4088 1.36053 8.40557C1.20541 8.06948 1.08584 7.71399 1.00182 7.35205C1.00182 7.34881 1.00182 7.34881 1.00182 7.34558C0.982427 7.27125 0.975964 7.22278 0.972732 7.20662C0.972732 7.20016 0.9695 7.19369 0.9695 7.184C0.904867 6.85114 0.87255 6.51504 0.87255 6.17572C0.87255 3.25106 3.25429 0.869319 6.17895 0.869319C9.10361 0.869319 11.4853 3.25106 11.4853 6.17572C11.4853 6.51828 11.453 6.8576 11.3884 7.18723Z" fill="#F45353"/>
<path d="M6.17944 2.32361C4.01745 2.32361 2.2562 4.08487 2.2562 6.24685C2.2562 8.40884 4.01745 10.1701 6.17944 10.1701C8.34143 10.1701 10.1027 8.40884 10.1027 6.24685C10.1027 4.08487 8.34143 2.32361 6.17944 2.32361ZM6.17944 9.29755C4.49574 9.29755 3.12875 7.92732 3.12875 6.24685C3.12875 4.56639 4.49897 3.19616 6.17944 3.19616C7.85991 3.19616 9.23013 4.56639 9.23013 6.24685C9.23013 7.92732 7.86314 9.29755 6.17944 9.29755Z" fill="#F45353"/>
</svg>
