<svg width="19" height="19" viewBox="0 0 19 19" fill="none" xmlns="http://www.w3.org/2000/svg">
<path d="M9.15819 1.17192L17.7279 8.83523C17.7281 8.83539 17.7283 8.83554 17.7284 8.83569C17.7299 8.83709 17.7305 8.83819 17.731 8.83924C17.7317 8.84072 17.7324 8.84293 17.7326 8.84569C17.7327 8.84737 17.7326 8.84887 17.7324 8.85015C17.7318 8.85023 17.7312 8.85028 17.7305 8.85028C17.7286 8.85028 17.7274 8.85005 17.7268 8.8499C17.7266 8.84983 17.7264 8.84978 17.7264 8.84976L17.726 8.84959L17.7244 8.84836L17.7243 8.84828L16.1816 7.46655L15.348 6.71997V7.839V10.9703V12.2453V16.4154C15.348 17.1458 14.9107 17.5129 14.573 17.5129H11.8654C11.4816 17.5129 11.1692 17.2005 11.1692 16.8166V12.2678C11.1692 11.8904 10.8628 11.5841 10.4854 11.5841H7.75164C7.37425 11.5841 7.06789 11.8904 7.06789 12.2678V16.8166C7.06789 17.2005 6.75549 17.5129 6.37162 17.5129H3.72408H3.72402H3.72395H3.72389H3.72382H3.72376H3.72369H3.72363H3.72356H3.7235H3.72343H3.72336H3.7233H3.72324H3.72317H3.72311H3.72304H3.72298H3.72291H3.72285H3.72278H3.72272H3.72265H3.72259H3.72253H3.72246H3.7224H3.72234H3.72227H3.72221H3.72214H3.72208H3.72202H3.72195H3.72189H3.72183H3.72176H3.7217H3.72164H3.72158H3.72151H3.72145H3.72139H3.72133H3.72126H3.7212H3.72114H3.72108H3.72101H3.72095H3.72089H3.72083H3.72077H3.7207H3.72064H3.72058H3.72052H3.72046H3.7204H3.72033H3.72027H3.72021H3.72015H3.72009H3.72003H3.71997H3.71991H3.71984H3.71978H3.71972H3.71966H3.7196H3.71954H3.71948H3.71942H3.71936H3.7193H3.71924H3.71918H3.71912H3.71906H3.719H3.71894H3.71888H3.71882H3.71876H3.7187H3.71864H3.71858H3.71852H3.71846H3.7184H3.71834H3.71828H3.71822H3.71816H3.7181H3.71804H3.71798H3.71793H3.71787H3.71781H3.71775H3.71769H3.71763H3.71757H3.71751H3.71745H3.7174H3.71734H3.71728H3.71722H3.71716H3.7171H3.71705H3.71699H3.71693H3.71687H3.71681H3.71675H3.7167H3.71664H3.71658H3.71652H3.71646H3.71641H3.71635H3.71629H3.71623H3.71618H3.71612H3.71606H3.716H3.71595H3.71589H3.71583H3.71577H3.71572H3.71566H3.7156H3.71554H3.71549H3.71543H3.71537H3.71532H3.71526H3.7152H3.71514H3.71509H3.71503H3.71497H3.71492H3.71486H3.7148H3.71475H3.71469H3.71463H3.71458H3.71452H3.71446H3.71441H3.71435H3.71429H3.71424H3.71418H3.71413H3.71407H3.71401H3.71396H3.7139H3.71384H3.71379H3.71373H3.71368H3.71362H3.71356H3.71351H3.71345H3.7134H3.71334H3.71328H3.71323H3.71317H3.71312H3.71306H3.713H3.71295H3.71289H3.71284H3.71278H3.71273H3.71267H3.71262H3.71256H3.7125H3.71245H3.71239H3.71234H3.71228H3.71223H3.71217H3.71212H3.71206H3.712H3.71195H3.71189H3.71184H3.71178H3.71173H3.71167H3.71162H3.71156H3.71151H3.71145H3.7114H3.71134H3.71129H3.71123H3.71118H3.71112H3.71106H3.71101H3.71095H3.7109H3.71084H3.71079H3.71073H3.71068H3.71062H3.71057H3.71051H3.71046H3.7104H3.71035H3.71029H3.71024H3.71018H3.71013H3.71007H3.71002H3.70996H3.70991H3.70985H3.7098H3.70974H3.70969H3.70963H3.70958H3.70952H3.70947H3.70941H3.70936H3.7093H3.70925H3.70919H3.70914H3.70908H3.70903H3.70897H3.70892H3.70886H3.70881H3.70876H3.7087H3.70865H3.70859H3.70854H3.70848H3.70843H3.70837H3.70832H3.70826H3.70821H3.70815H3.7081H3.70804H3.70799H3.70793H3.70788H3.70782H3.70777H3.70771H3.70766H3.7076H3.70755H3.70749H3.70744H3.70738H3.70733H3.70727H3.70721H3.70716H3.7071H3.70705H3.70699H3.70694H3.70688H3.70683H3.70677H3.70672H3.70666H3.70661H3.70655H3.7065H3.70644H3.70639H3.70633H3.70628H3.70622H3.70617H3.70611H3.70605H3.706H3.70594H3.70589H3.70583H3.70578H3.70572H3.70567H3.70561H3.70555H3.7055H3.70544H3.70539H3.70533H3.70528H3.70522H3.70516H3.70511H3.70505H3.705H3.70494H3.70489H3.70483H3.70477H3.70472H3.70466H3.70461H3.70455H3.70449H3.70444H3.70438H3.70433H3.70427H3.70421H3.70416H3.7041H3.70404H3.70399H3.70393H3.70387H3.70382H3.70376H3.70371H3.70365H3.70359H3.70354H3.70348H3.70342H3.70337H3.70331H3.70325H3.7032H3.70314H3.70308H3.70302H3.70297H3.70291H3.70285H3.7028H3.70274H3.70268H3.70263H3.70257H3.70251H3.70245H3.7024H3.70234H3.70228H3.70222H3.70217H3.70211H3.70205H3.70199H3.70194H3.70188H3.70182H3.70176H3.70171H3.70165H3.70159H3.70153H3.70147H3.70142H3.70136H3.7013H3.70124H3.70118H3.70112H3.70107H3.70101H3.70095H3.70089H3.70083H3.70077H3.70072H3.70066H3.7006H3.70054H3.70048H3.70042H3.70036H3.7003H3.70024H3.70019H3.70013H3.70007H3.70001H3.69995H3.69989H3.69983H3.69977H3.69971H3.69965H3.69959H3.69953H3.69947H3.69941H3.69935H3.69929H3.69923H3.69917H3.69911H3.69905H3.69899H3.69893H3.69887H3.69881H3.69875H3.69869H3.69863H3.69857H3.69851H3.69845H3.69839H3.69833H3.69826H3.6982H3.69814H3.69808H3.69802H3.69796H3.6979H3.69784H3.69777H3.69771H3.69765H3.69759H3.69753H3.69747H3.6974H3.69734H3.69728H3.69722H3.69716H3.69709H3.69703H3.69697H3.69691H3.69684H3.69678H3.69672H3.69666H3.69659H3.69653H3.69647H3.6964H3.69634H3.69628H3.69622H3.69615H3.69609H3.69603H3.69596H3.6959H3.69583H3.69577H3.69571H3.69564H3.69558H3.69551H3.69545H3.69539H3.69532H3.69526H3.69519H3.69513H3.69506H3.695H3.69493H3.69487H3.6948H3.69474H3.69467H3.69461H3.69454H3.69448H3.69441H3.69435H3.69428H3.69422H3.69415H3.69408H3.69402H3.69395H3.69389H3.69382H3.69376H3.69369H3.69363H3.69356H3.69349H3.69343H3.69336H3.6933H3.69323H3.69317H3.69311H3.69304H3.69298H3.69291H3.69285H3.69278H3.69272H3.69265H3.69259H3.69253H3.69246H3.6924H3.69233H3.69227H3.69221H3.69214H3.69208H3.69202H3.69195H3.69189H3.69183H3.69176H3.6917H3.69164H3.69158H3.69151H3.69145H3.69139H3.69132H3.69126H3.6912H3.69114H3.69108H3.69101H3.69095H3.69089H3.69083H3.69077H3.6907H3.69064H3.69058H3.69052H3.69046H3.69039H3.69033H3.69027H3.69021H3.69015H3.69009H3.69003H3.68997H3.6899H3.68984H3.68978H3.68972H3.68966H3.6896H3.68954H3.68948H3.68942H3.68936H3.6893H3.68924H3.68918H3.68912H3.68906H3.689H3.68894H3.68888H3.68882H3.68876H3.6887H3.68864H3.68858H3.68852H3.68846H3.6884H3.68834H3.68828H3.68822H3.68816H3.6881H3.68804H3.68798H3.68793H3.68787H3.68781H3.68775H3.68769H3.68763H3.68757H3.68751H3.68745H3.6874H3.68734H3.68728H3.68722H3.68716H3.6871H3.68704H3.68699H3.68693H3.68687H3.68681H3.68675H3.6867H3.68664H3.68658H3.68652H3.68646H3.68641H3.68635H3.68629H3.68623H3.68618H3.68612H3.68606H3.686H3.68595H3.68589H3.68583H3.68577H3.68572H3.68566H3.6856H3.68554H3.68549H3.68543H3.68537H3.68532H3.68526H3.6852H3.68514H3.68509H3.68503H3.68497H3.68492H3.68486H3.6848H3.68475H3.68469H3.68463H3.68458H3.68452H3.68446H3.68441H3.68435H3.68429H3.68424H3.68418H3.68413H3.68407H3.68401H3.68396H3.6839H3.68384H3.68379H3.68373H3.68368H3.68362H3.68356H3.68351H3.68345H3.6834H3.68334H3.68328H3.68323H3.68317H3.68312H3.68306H3.683H3.68295H3.68289H3.68284H3.68278H3.68273H3.68267H3.68261H3.68256H3.6825H3.68245H3.68239H3.68234H3.68228H3.68223H3.68217H3.68212H3.68206H3.682H3.68195H3.68189H3.68184H3.68178H3.68173H3.68167H3.68162H3.68156H3.68151H3.68145H3.6814H3.68134H3.68129H3.68123H3.68117H3.68112H3.68106H3.68101H3.68095H3.6809H3.68084H3.68079H3.68073H3.68068H3.68062H3.68057H3.68051H3.68046H3.6804H3.68035H3.68029H3.68024H3.68018H3.68013H3.68007H3.68002H3.67996H3.67991H3.67985H3.6798H3.67974H3.67969H3.67963H3.67958H3.67952H3.67947H3.67941H3.67936H3.6793H3.67925H3.67919H3.67914H3.67908H3.67903H3.67897H3.67892H3.67886H3.67881H3.67875H3.6787H3.67864H3.67859H3.67853H3.67848H3.67843H3.67837H3.67832H3.67826H3.67821H3.67815H3.6781H3.67804H3.67799H3.67793H3.67788H3.67782H3.67777H3.67771H3.67766H3.6776H3.67755H3.67749H3.67743H3.67738H3.67732H3.67727H3.67721H3.67716H3.6771H3.67705H3.67699H3.67694H3.67688H3.67683H3.67677H3.67672H3.67666H3.67661H3.67655H3.6765H3.67644H3.67639H3.67633H3.67628H3.67622H3.67616H3.67611H3.67605H3.676H3.67594H3.67589H3.67583H3.67578H3.67572H3.67567H3.67561H3.67555H3.6755H3.67544H3.67539H3.67533H3.67528H3.67522H3.67516H3.67511H3.67505H3.675H3.67494H3.67489H3.67483H3.67477H3.67472H3.67466H3.67461H3.67455H3.67449H3.67444H3.67438H3.67432H3.67427H3.67421H3.67416H3.6741H3.67404H3.67399H3.67393H3.67387H3.67382H3.67376H3.67371H3.67365H3.67359H3.67354H3.67348H3.67342H3.67337H3.67331H3.67325H3.6732H3.67314H3.67308H3.67302H3.67297H3.67291H3.67285H3.6728H3.67274H3.67268H3.67263H3.67257H3.67251H3.67245H3.6724H3.67234H3.67228H3.67222H3.67217H3.67211H3.67205H3.67199H3.67194H3.67188H3.67182H3.67176H3.6717H3.67165H3.67159H3.67153H3.67147H3.67142H3.67136H3.6713H3.67124H3.67118H3.67112H3.67107H3.67101H3.67095H3.67089H3.67083H3.67077H3.67071H3.67066H3.6706H3.67054H3.67048H3.67042H3.67036H3.6703H3.67024H3.67018H3.67013H3.67007H3.67001H3.66995H3.66989H3.66983H3.66977H3.66971H3.66965H3.66959H3.66953H3.66947H3.66941H3.66935H3.66929H3.66923H3.66917H3.66911H3.66905H3.66899H3.66893H3.66887H3.66881H3.66875H3.66869H3.66863H3.66857H3.66851H3.66845H3.66839H3.66832H3.66826H3.6682H3.66814H3.66808H3.66802H3.66796H3.6679H3.66784H3.66777H3.66771H3.66765H3.66759H3.66753H3.66747H3.6674H3.66734H3.66728H3.66722H3.66716H3.66709H3.66703H3.66697H3.66691H3.66684H3.66678H3.66672H3.66666H3.66659H3.66653H3.66647H3.6664H3.66634H3.66628H3.66621H3.66615H3.66609H3.66602H3.66596H3.6659H3.66583H3.66577H3.66571H3.66564H3.66558H3.66551H3.66545H3.66539H3.66532H3.66526H3.66519H3.66513H3.66506H3.665H3.66493H3.66487H3.6648H3.66474H3.66467H3.66461H3.66454H3.66448H3.66441H3.66435H3.66428H3.66422H3.66415H3.66408C3.23617 17.5129 2.88907 17.164 2.88907 16.7379V12.0653V8.06026V7.79025V6.67122L2.05548 7.4178L0.512759 8.79952L0.512663 8.7996L0.511047 8.80084L0.510701 8.80101C0.510538 8.80107 0.509251 8.80152 0.506541 8.80152C0.50458 8.80152 0.503173 8.80111 0.502465 8.8008L0.502427 8.80079C0.502316 8.80074 0.502117 8.80065 0.501819 8.80046C0.501233 8.79947 0.500896 8.79865 0.500669 8.79798C0.500143 8.79643 0.499937 8.7948 0.500016 8.79334C0.500094 8.79191 0.500402 8.79125 0.500414 8.79122L0.500525 8.79105L0.502045 8.78948L0.502329 8.78923L9.0809 1.118C9.08098 1.11793 9.08106 1.11786 9.08114 1.11779C9.0823 1.1168 9.08296 1.11653 9.08342 1.11637C9.0842 1.11609 9.08544 1.11582 9.087 1.11585C9.08821 1.11587 9.08906 1.11606 9.08951 1.1162L9.12982 1.1549L9.15819 1.17192Z" stroke="#001133"/>
</svg>
