<svg xmlns:dc="http://purl.org/dc/elements/1.1/" xmlns:cc="http://creativecommons.org/ns#" xmlns:rdf="http://www.w3.org/1999/02/22-rdf-syntax-ns#" xmlns="http://www.w3.org/2000/svg" height="1176" width="1875" version="1.1" xmlns:xlink="http://www.w3.org/1999/xlink" preserveAspectRatio="xMinYMin meet" style=""><rect id="backgroundrect" width="120" height="120" x="0" y="0" fill="none" stroke="none"/>
    <metadata id="metadata96">
        <rdf:RDF>
            <cc:Work rdf:about="">
                <dc:format>image/svg+xml</dc:format>
                <dc:type rdf:resource="http://purl.org/dc/dcmitype/StillImage"/>
                <dc:title/>
            </cc:Work>
        </rdf:RDF>
    </metadata>
        
<g class="currentLayer" style=""><title>Layer 1</title><g id="Layer1001" class="">
            <path id="path2" style="fill:#d77c1a;fill-rule:evenodd;stroke:#d77c1a;stroke-width:0.21600001;stroke-linecap:butt;stroke-linejoin:miter;stroke-dasharray:none" d="m874.4874267578125,941.0266609191895 c140.5802001953125,-46.70750045776367 307.91558837890625,-92.84600067138672 457.1913146972656,-122.91079711914062 c34.3755989074707,-6.92519998550415 51.002899169921875,-2.3508999347686768 57.3843994140625,-38.749000549316406 c5.021399974822998,-28.645700454711914 3.2416000366210938,-62.14690017700195 7.348499774932861,-90.53759765625 c14.660699844360352,-101.34390258789062 121.0553970336914,-161.27389526367188 224.5395050048828,-160.42709350585938 c68.88240051269531,0.5623999834060669 103.7300033569336,18.56529998779297 125.29669952392578,68.84320068359375 c21.73390007019043,50.680198669433594 23.825000762939453,107.20970153808594 27.020700454711914,167.1300048828125 c13.428299903869629,-9.15839958190918 36.43389892578125,-53.223899841308594 43.582401275634766,-68.37570190429688 c46.62409973144531,-98.81310272216797 37.66960144042969,-169.13099670410156 -19.075700759887695,-255.2969970703125 c-75.60479736328125,-114.8051986694336 -172.19940185546875,-131.38250732421875 -313.2384033203125,-136.908203125 c-1.3798999786376953,49.09429931640625 -41.17340087890625,124.41480255126953 -66.14559936523438,152.72039794921875 c-82.63520050048828,93.66670227050781 -202.1304931640625,116.97949981689453 -325.1328125,80.61740112304688 C988.2237548828125,506.0800971984863 941.5506591796875,400.0310859680176 898.2598876953125,349.76298904418945 C888.6072998046875,338.55449295043945 874.7298583984375,339.7086982727051 856.1949462890625,335.9844856262207 C797.2701416015625,324.1450080871582 726.7586669921875,318.8513984680176 690.8785400390625,282.4826850891113 C632.4190673828125,223.2261848449707 664.2774658203125,185.33708572387695 728.1876220703125,161.07928848266602 C786.9913330078125,138.76037979125977 895.3787841796875,129.90608596801758 907.1815185546875,121.91498947143555 C815.6051025390625,88.78329086303711 630.0953369140625,61.25898742675781 535.8343505859375,104.7654914855957 c-20.30150032043457,9.37090015411377 -50.760398864746094,32.307701110839844 -56.5093994140625,51.37329864501953 c-7.702400207519531,25.542699813842773 -5.542399883270264,74.32640075683594 -0.9995999932289124,100.67359924316406 c13.988800048828125,81.17320251464844 80.222900390625,139.389892578125 132.93679809570312,190.92999267578125 c55.296600341796875,54.067501068115234 107.33200073242188,109.32510375976562 148.6988067626953,175.6114959716797 c40.56380081176758,65.00460052490234 116.40779876708984,224.72219848632812 114.52639770507812,317.67279052734375 z"/>
            <path id="path4" style="fill:#44a1d0;fill-rule:evenodd" d="m814.8282470703125,1036.4230842590332 c-2.150099992752075,-32.97480010986328 0.2522999942302704,-61.74150085449219 -4.293700218200684,-97.70800018310547 C787.7222900390625,758.3133430480957 728.8399658203125,631.586841583252 611.1341552734375,505.9624214172363 C561.5670166015625,453.05888748168945 500.2132568359375,400.97929763793945 437.7550048828125,363.3943061828613 C335.9652099609375,302.1302070617676 304.1495361328125,300.2991828918457 198.0137939453125,286.81828689575195 c-63.539798736572266,-8.069600105285645 -42.90399932861328,-10.842300415039062 -108.44319915771484,40.148399353027344 c-10.055700302124023,7.821100234985352 -19.527999877929688,14.671099662780762 -30.229400634765625,22.465999603271484 c-12.143600463867188,8.844499588012695 -19.075700759887695,14.151200294494629 -29.71809959411621,22.678600311279297 c-8.823399543762207,7.072299957275391 -20.737499237060547,14.350600242614746 -29.62310028076172,23.253999710083008 c73.74960327148438,8.246100425720215 73.32019805908203,-5.051700115203857 170.6063995361328,18.284099578857422 c105.26390075683594,25.251699447631836 174.73289489746094,52.07619857788086 261.88470458984375,112.83679962158203 c41.47169876098633,28.913799285888672 43.10060119628906,35.82270050048828 66.02429962158203,53.17490005493164 c5.450699806213379,4.1296000480651855 7.381199836730957,5.470200061798096 12.346799850463867,9.773099899291992 c34.72959899902344,30.10070037841797 76.25370025634766,81.26799774169922 109.25599670410156,123.66600036621094 c74.55259704589844,95.785400390625 158.87249755859375,291.2732849121094 159.08889770507812,396.7109069824219 c0.03269999846816063,15.933099746704102 -3.9265999794006348,29.982999801635742 -7.197700023651123,43.787601470947266 c13.782400131225586,-5.842899799346924 18.679100036621094,-11.620499610900879 30.701400756835938,-18.69930076599121 c78.57430267333984,-46.25299835205078 142.20919799804688,-83.32140350341797 231.61599731445312,-106.25499725341797 c213.54969787597656,-54.777000427246094 417.2403869628906,-72.77339935302734 626.0966186523438,16.88789939880371 c129.06590270996094,55.40810012817383 143.22520446777344,116.14579772949219 212.64830017089844,130.00929260253906 c0.9668999910354614,-75.47750091552734 4.375699996948242,-175.96800231933594 0.7538999915122986,-251.20010375976562 l-3.5071001052856445,-19.72279930114746 c-5.650599956512451,-13.392600059509277 -126.47000122070312,-23.123199462890625 -146.76499938964844,-24.8169002532959 c-269.84930419921875,-22.51180076599121 -496.6864929199219,3.469099998474121 -754.3693237304688,91.7865982055664 c-28.426799774169922,9.74370002746582 -50.757198333740234,20.151100158691406 -79.36419677734375,31.86639976501465 c-14.077400207519531,5.764400005340576 -23.648000717163086,10.227499961853027 -38.144901275634766,16.99250030517578 c-8.541399955749512,3.9825000762939453 -30.45560073852539,15.393699645996094 -36.846900939941406,15.975700378417969 z"/>
            <path id="path6" style="fill:#d77c1a;fill-rule:evenodd" d="M1164.6480712890625,2.1888880729675293 C1021.4752197265625,22.150287628173828 928.7547607421875,146.13348770141602 943.7926025390625,287.6094856262207 c13.749600410461426,129.34219360351562 132.5697021484375,246.1811981201172 279.1708984375,226.27859497070312 c226.65029907226562,-30.77429962158203 289.6951904296875,-321.6846923828125 130.55059814453125,-452.2825012207031 c-52.49100112915039,-43.074798583984375 -115.529296875,-69.64099884033203 -188.86599731445312,-59.41669845581055 z"/>
        </g></g></svg>