<svg width="16" height="16" viewBox="0 0 16 16" fill="none" xmlns="http://www.w3.org/2000/svg">
<path d="M14.563 11.9703C14.0286 11.4319 12.7342 10.6461 12.1062 10.3294C11.2884 9.91749 11.2211 9.88384 10.5783 10.3614C10.1496 10.6801 9.8645 10.9648 9.3627 10.8577C8.86091 10.7507 7.7705 10.1473 6.81572 9.19565C5.86094 8.24396 5.22251 7.12199 5.11515 6.62191C5.00779 6.12184 5.29722 5.84017 5.6129 5.41043C6.05782 4.80468 6.02416 4.70373 5.64386 3.88597C5.34737 3.24994 4.53864 1.96779 3.99815 1.43608C3.41996 0.864997 3.41996 0.965954 3.04741 1.12075C2.7441 1.24836 2.45312 1.40347 2.17811 1.58415C1.63963 1.94187 1.34078 2.23902 1.13178 2.68559C0.922787 3.13216 0.828891 4.17909 1.9082 6.13967C2.9875 8.10026 3.74473 9.10277 5.31203 10.6656C6.87933 12.2284 8.0845 13.0687 9.84632 14.0567C12.0258 15.2773 12.8618 15.0394 13.3097 14.8307C13.7577 14.6221 14.0562 14.326 14.4146 13.7875C14.5958 13.513 14.7512 13.2223 14.879 12.9193C15.0342 12.5481 15.1352 12.5481 14.563 11.9703Z" stroke="#64DC34" stroke-miterlimit="10"/>
</svg>
