<svg width="12" height="17" viewBox="0 0 12 17" fill="none" xmlns="http://www.w3.org/2000/svg">
<path d="M6 0C2.69158 0 0 2.81575 0 6.27678C0 8.22337 0.962789 10.4842 2.86164 12.9965C4.25108 14.8348 5.62051 16.1052 5.67813 16.1584C5.86202 16.3281 6.13795 16.3282 6.32187 16.1584C6.37949 16.1052 7.74892 14.8348 9.13836 12.9965C11.0372 10.4842 12 8.22337 12 6.27678C12 2.81575 9.30842 0 6 0V0ZM6 15.0825C4.84383 13.9298 0.972975 9.8063 0.972975 6.27678C0.972975 3.377 3.22809 1.01786 6 1.01786C8.77191 1.01786 11.027 3.377 11.027 6.27678C11.027 9.8063 7.15611 13.9299 6 15.0825Z" fill="#0AD4E4"/>
</svg>
