<svg width="128" height="128" viewBox="0 0 128 128" fill="none" xmlns="http://www.w3.org/2000/svg">
<path fill-rule="evenodd" clip-rule="evenodd" d="M37.0409 66.6549L60.4468 75.4433C62.2696 76.1277 64.2795 76.1239 66.0997 75.4325L88.962 66.7484L88.9618 83.4477C88.962 83.4634 88.9621 83.4792 88.9621 83.495C88.9621 88.6398 77.3391 92.8105 63.0015 92.8105C48.6638 92.8105 37.0409 88.6398 37.0409 83.495C37.0409 83.4897 37.0408 83.4845 37.0408 83.4792C37.0408 83.4687 37.0407 83.4582 37.0409 83.4477V66.6549Z" fill="black"/>
<path d="M110.065 79.2053C110.846 77.7713 111.729 75.9086 112.477 74.2526C113.059 72.9631 114.716 72.6791 115.429 73.9011C116.677 76.0408 117.5 78.5939 117.909 80.2952C118.039 80.8355 117.925 81.4215 117.509 81.7908C115.748 83.3571 113.028 82.9374 110.916 82.1364C109.783 81.7069 109.485 80.2694 110.065 79.2053Z" fill="white"/>
<path fill-rule="evenodd" clip-rule="evenodd" d="M114.04 74.1256C113.817 74.1564 113.543 74.3211 113.388 74.664C112.637 76.3275 111.742 78.2168 110.943 79.6836C110.774 79.9939 110.737 80.3575 110.815 80.6544C110.89 80.9379 111.052 81.1183 111.271 81.2014C112.259 81.5762 113.345 81.8433 114.352 81.8513C115.352 81.8593 116.204 81.6137 116.845 81.0434C116.917 80.9797 117.004 80.8086 116.937 80.5292C116.54 78.8818 115.746 76.4306 114.565 74.4049C114.422 74.1595 114.233 74.099 114.04 74.1256ZM113.767 72.1444C114.726 72.0121 115.723 72.4206 116.292 73.3971L115.429 73.901M113.767 72.1444C112.838 72.2725 111.993 72.8946 111.565 73.8412L113.767 72.1444ZM116.292 73.3971C117.607 75.651 118.459 78.306 118.882 80.0611C119.074 80.8624 118.933 81.8632 118.174 82.5381C117.054 83.5341 115.664 83.8618 114.336 83.8513C113.015 83.8408 111.685 83.4975 110.562 83.0715C108.685 82.3599 108.416 80.1426 109.186 78.7271C109.95 77.3258 110.821 75.4897 111.565 73.8412" fill="black"/>
<path fill-rule="evenodd" clip-rule="evenodd" d="M112.252 71.6091C112.679 71.2593 113.309 71.3223 113.659 71.7498C114.002 72.169 114.178 72.7849 114.289 73.2975C114.41 73.8629 114.494 74.5239 114.552 75.1885C114.668 76.5209 114.688 77.9629 114.671 78.8885C114.661 79.4407 114.205 79.8802 113.653 79.8701C113.101 79.8601 112.662 79.4043 112.672 78.8521C112.687 77.9757 112.668 76.6065 112.56 75.362C112.505 74.7382 112.431 74.1693 112.334 73.7188C112.285 73.4937 112.235 73.3157 112.186 73.1838C112.14 73.0592 112.109 73.0141 112.109 73.0138C112.109 73.0138 112.11 73.0146 112.111 73.0163C111.761 72.5888 111.824 71.9588 112.252 71.6091Z" fill="black"/>
<path fill-rule="evenodd" clip-rule="evenodd" d="M113.475 52.3058C114.303 52.3058 114.975 52.9773 114.975 53.8058V70.4171C114.975 71.2455 114.303 71.9171 113.475 71.9171C112.646 71.9171 111.975 71.2455 111.975 70.4171V53.8058C111.975 52.9773 112.646 52.3058 113.475 52.3058Z" fill="black"/>
<path d="M117.603 71.0069C117.603 73.2869 115.755 75.1352 113.475 75.1352C111.195 75.1352 109.347 73.2869 109.347 71.0069C109.347 68.7269 111.195 66.8786 113.475 66.8786C115.755 66.8786 117.603 68.7269 117.603 71.0069Z" fill="black"/>
<path d="M60.1547 33.0997L11.6849 52.4133C10.7891 52.7703 10.8019 54.0427 11.7046 54.3816L60.3131 72.6331C62.2367 73.3554 64.3578 73.3513 66.2786 72.6217L114.302 54.3802C115.2 54.0393 115.212 52.7739 114.322 52.4149L66.4363 33.1122C64.422 32.3002 62.1722 32.2958 60.1547 33.0997Z" fill="black"/>
<path fill-rule="evenodd" clip-rule="evenodd" d="M100.016 55.5271C100.205 56.0459 99.938 56.62 99.4192 56.8093L65.2136 69.2924C64.6948 69.4817 64.1207 69.2146 63.9314 68.6958C63.742 68.177 64.0091 67.6029 64.5279 67.4136L98.7336 54.9305C99.2524 54.7412 99.8265 55.0083 100.016 55.5271Z" fill="white"/>
<path fill-rule="evenodd" clip-rule="evenodd" d="M19.5669 53.2121C19.7571 52.6936 20.3317 52.4275 20.8502 52.6177L32.2819 56.8111C32.8004 57.0013 33.0665 57.5759 32.8763 58.0944C32.6861 58.6129 32.1116 58.879 31.5931 58.6888L20.1614 54.4953C19.6429 54.3051 19.3767 53.7306 19.5669 53.2121Z" fill="white"/>
</svg>
