<svg width="128" height="128" viewBox="0 0 128 128" fill="none" xmlns="http://www.w3.org/2000/svg">
    <path
        d="M66.5679 35.6978L104.951 30.1226C108.239 29.645 111.212 32.1322 111.322 35.453L113.415 98.4639C113.515 101.485 111.188 104.036 108.17 104.213L67.6945 106.581C64.494 106.768 61.7958 104.223 61.7958 101.017V41.2131C61.7958 38.4446 63.8281 36.0958 66.5679 35.6978Z"
        fill="white" />
    <path
        d="M61.4321 35.6978L23.0493 30.1226C19.7612 29.645 16.7883 32.1322 16.678 35.453L14.5854 98.4639C14.4851 101.485 16.812 104.036 19.83 104.213L60.3055 106.581C63.506 106.768 66.2042 104.223 66.2042 101.017V41.2131C66.2042 38.4446 64.1719 36.0958 61.4321 35.6978Z"
        fill="white" />
    <path
        d="M65.6869 33.7266L103.352 27.3777C104.464 27.1903 105.485 28.0287 105.518 29.1558L107.482 96.9942C107.511 97.9923 106.745 98.8347 105.749 98.9015L66.1199 101.558C65.0474 101.63 64.1379 100.779 64.1379 99.7046V35.5585C64.1379 34.6516 64.7926 33.8773 65.6869 33.7266Z"
        fill="#518CFF" />
    <path fill-rule="evenodd" clip-rule="evenodd"
        d="M103.043 25.5458L65.3781 31.8947C63.5897 32.1961 62.2802 33.7448 62.2802 35.5584V99.7046C62.2802 101.854 64.0992 103.556 66.2442 103.412L105.873 100.755C107.866 100.622 109.397 98.9367 109.339 96.9404L107.375 29.1021C107.31 26.8477 105.267 25.1709 103.043 25.5458ZM103.352 27.3777L65.6869 33.7266C64.7927 33.8773 64.1379 34.6516 64.1379 35.5584V99.7046C64.1379 100.779 65.0474 101.63 66.1199 101.558L105.749 98.9015C106.745 98.8347 107.511 97.9923 107.482 96.9942L105.518 29.1558C105.485 28.0286 104.464 27.1902 103.352 27.3777Z"
        fill="white" />
    <path
        d="M66.3646 33.5773L98.7019 23.3559C99.8779 22.9842 101.083 23.8407 101.119 25.0735L103.079 92.7937C103.106 93.7043 102.468 94.4997 101.573 94.6717L67.2752 101.266C66.1295 101.487 65.0667 100.609 65.0667 99.442V35.3487C65.0667 34.5384 65.5919 33.8215 66.3646 33.5773Z"
        fill="#518CFF" />
    <path fill-rule="evenodd" clip-rule="evenodd"
        d="M98.142 21.5845L65.8047 31.8059C64.2594 32.2944 63.209 33.728 63.209 35.3487V99.4419C63.209 101.775 65.3346 103.531 67.626 103.091L101.924 96.496C103.713 96.152 104.989 94.5612 104.936 92.7399L102.976 25.0197C102.904 22.554 100.494 20.8411 98.142 21.5845ZM98.7019 23.3559L66.3646 33.5773C65.592 33.8215 65.0668 34.5383 65.0668 35.3487V99.4419C65.0668 100.609 66.1296 101.487 67.2753 101.266L101.573 94.6717C102.468 94.4997 103.106 93.7043 103.079 92.7936L101.119 25.0735C101.083 23.8406 99.878 22.9842 98.7019 23.3559Z"
        fill="white" />
    <path d="M73.5496 29.9763L79.2528 28.1146V43.3822L76.4012 41.6327L73.5496 44.4843V29.9763Z"
        fill="white" />
    <path fill-rule="evenodd" clip-rule="evenodd"
        d="M71.6919 29.9763C71.6919 29.1724 72.209 28.4597 72.9732 28.2103L78.6764 26.3486C79.2422 26.1639 79.8621 26.2615 80.3438 26.611C80.8255 26.9604 81.1106 27.5195 81.1106 28.1146V43.3822C81.1106 44.0548 80.7471 44.6748 80.1602 45.0033C79.5733 45.3318 78.8547 45.3174 78.2814 44.9657L76.6788 43.9824L74.8633 45.7979C74.3319 46.3292 73.5329 46.4882 72.8387 46.2006C72.1445 45.9131 71.6919 45.2357 71.6919 44.4843V29.9763ZM79.2529 43.3822L76.4013 41.6327L73.5496 44.4843V29.9763L79.2529 28.1146V43.3822Z"
        fill="white" />
    <path
        d="M61.4882 33.7252L24.0857 27.3803C22.973 27.1915 21.9505 28.0304 21.918 29.1585L19.9666 96.9952C19.9379 97.9929 20.7027 98.835 21.6985 98.9022L61.0525 101.557C62.1253 101.63 63.0353 100.779 63.0353 99.7037V35.5568C63.0353 34.6506 62.3816 33.8767 61.4882 33.7252Z"
        fill="#518CFF" />
    <path fill-rule="evenodd" clip-rule="evenodd"
        d="M24.3965 25.5487L61.799 31.8936C63.5857 32.1967 64.8931 33.7445 64.8931 35.5567V99.7037C64.8931 101.854 63.0731 103.555 60.9275 103.411L21.5736 100.756C19.5819 100.621 18.0523 98.9372 18.1097 96.9418L20.0612 29.105C20.1261 26.8488 22.1712 25.1712 24.3965 25.5487ZM24.0858 27.3803L61.4883 33.7252C62.3817 33.8767 63.0354 34.6506 63.0354 35.5567V99.7037C63.0354 100.779 62.1254 101.63 61.0526 101.557L21.6986 98.9022C20.7028 98.835 19.938 97.9929 19.9667 96.9952L21.9181 29.1584C21.9506 28.0303 22.9731 27.1915 24.0858 27.3803Z"
        fill="white" />
    <path fill-rule="evenodd" clip-rule="evenodd"
        d="M52.6969 52.1541C53.9226 51.6105 55.3235 51.663 56.3932 52.168C56.8571 52.387 57.0556 52.9407 56.8366 53.4046C56.6176 53.8685 56.064 54.067 55.6001 53.848C55.0157 53.5721 54.1792 53.5289 53.4501 53.8523C52.7662 54.1556 52.1251 54.8044 51.9139 56.0426C51.7042 57.2724 51.9823 58.4503 52.5963 59.2319C53.1784 59.9728 54.1256 60.4447 55.5234 60.2081C56.0292 60.1225 56.5086 60.4631 56.5943 60.9689C56.6799 61.4748 56.3392 61.9542 55.8334 62.0398C53.797 62.3845 52.158 61.681 51.1355 60.3795C50.1449 59.1187 49.8 57.3872 50.0826 55.7303C50.395 53.8986 51.426 52.7177 52.6969 52.1541Z"
        fill="white" />
    <path fill-rule="evenodd" clip-rule="evenodd"
        d="M99.1515 47.5092C99.0532 47.0057 98.5653 46.6773 98.0618 46.7756L68.4426 52.5617C67.9391 52.6601 67.6107 53.148 67.709 53.6514C67.8074 54.1549 68.2953 54.4833 68.7987 54.385L98.418 48.5989C98.9214 48.5006 99.2499 48.0127 99.1515 47.5092Z"
        fill="white" />
    <path fill-rule="evenodd" clip-rule="evenodd"
        d="M99.1515 51.7799C99.0532 51.2764 98.5653 50.948 98.0618 51.0464L68.4426 56.8325C67.9391 56.9308 67.6107 57.4187 67.709 57.9222C67.8074 58.4257 68.2953 58.7541 68.7987 58.6557L98.418 52.8697C98.9214 52.7713 99.2499 52.2834 99.1515 51.7799Z"
        fill="white" />
    <path fill-rule="evenodd" clip-rule="evenodd"
        d="M99.1515 68.9317C99.0532 68.4282 98.5653 68.0998 98.0618 68.1981L68.4426 73.9842C67.9391 74.0826 67.6107 74.5704 67.709 75.0739C67.8074 75.5774 68.2953 75.9058 68.7987 75.8075L98.418 70.0214C98.9214 69.923 99.2499 69.4352 99.1515 68.9317Z"
        fill="white" />
    <path fill-rule="evenodd" clip-rule="evenodd"
        d="M99.1515 56.1885C99.0532 55.685 98.5653 55.3566 98.0618 55.455L68.4426 61.241C67.9391 61.3394 67.6107 61.8273 67.709 62.3308C67.8074 62.8342 68.2953 63.1627 68.7987 63.0643L98.418 57.2782C98.9214 57.1799 99.2499 56.692 99.1515 56.1885Z"
        fill="white" />
    <path fill-rule="evenodd" clip-rule="evenodd"
        d="M99.1515 73.3402C99.0532 72.8368 98.5653 72.5083 98.0618 72.6067L68.4426 78.3928C67.9391 78.4911 67.6107 78.979 67.709 79.4825C67.8074 79.986 68.2953 80.3144 68.7987 80.216L98.418 74.43C98.9214 74.3316 99.2499 73.8437 99.1515 73.3402Z"
        fill="white" />
    <path fill-rule="evenodd" clip-rule="evenodd"
        d="M99.1515 60.7693C99.0532 60.2658 98.5653 59.9374 98.0618 60.0358L68.4426 65.8218C67.9391 65.9202 67.6107 66.4081 67.709 66.9116C67.8074 67.4151 68.2953 67.7435 68.7987 67.6451L98.418 61.859C98.9214 61.7607 99.2499 61.2728 99.1515 60.7693Z"
        fill="white" />
    <path fill-rule="evenodd" clip-rule="evenodd"
        d="M99.1515 77.9212C99.0532 77.4177 98.5653 77.0893 98.0618 77.1876L68.4426 82.9737C67.9391 83.0721 67.6107 83.5599 67.709 84.0634C67.8074 84.5669 68.2953 84.8953 68.7987 84.797L98.418 79.0109C98.9214 78.9125 99.2499 78.4247 99.1515 77.9212Z"
        fill="white" />
    <path fill-rule="evenodd" clip-rule="evenodd"
        d="M85.7229 85.3458C85.6358 84.8402 85.1553 84.501 84.6498 84.5882L68.4625 87.3781C67.957 87.4653 67.6178 87.9457 67.7049 88.4513C67.7921 88.9568 68.2725 89.296 68.7781 89.2089L84.9653 86.4189C85.4709 86.3318 85.8101 85.8513 85.7229 85.3458Z"
        fill="white" />
    <path fill-rule="evenodd" clip-rule="evenodd"
        d="M26.0854 67.4576C26.1322 66.9467 26.5844 66.5706 27.0952 66.6174L57.1277 69.3727C57.6386 69.4196 58.0147 69.8717 57.9678 70.3826C57.921 70.8934 57.4689 71.2696 56.958 71.2227L26.9255 68.4674C26.4146 68.4206 26.0385 67.9684 26.0854 67.4576Z"
        fill="white" />
    <path fill-rule="evenodd" clip-rule="evenodd"
        d="M26.0854 79.853C26.1322 79.3421 26.5844 78.966 27.0952 79.0128L57.1277 81.7681C57.6386 81.815 58.0147 82.2671 57.9678 82.778C57.921 83.2888 57.4689 83.6649 56.958 83.6181L26.9255 80.8628C26.4146 80.8159 26.0385 80.3638 26.0854 79.853Z"
        fill="white" />
    <path fill-rule="evenodd" clip-rule="evenodd"
        d="M26.0836 71.881C26.118 71.3691 26.5608 70.9821 27.0727 71.0165L43.4666 72.1186C43.9784 72.153 44.3654 72.5959 44.331 73.1077C44.2966 73.6195 43.8538 74.0066 43.3419 73.9722L26.9481 72.8701C26.4362 72.8357 26.0492 72.3928 26.0836 71.881Z"
        fill="white" />
    <path fill-rule="evenodd" clip-rule="evenodd"
        d="M26.0837 84.2739C26.1196 83.7622 26.5635 83.3764 27.0752 83.4122L50.6027 85.0592C51.1144 85.095 51.5003 85.5389 51.4644 86.0506C51.4286 86.5624 50.9847 86.9482 50.473 86.9124L26.9455 85.2654C26.4337 85.2296 26.0479 84.7857 26.0837 84.2739Z"
        fill="white" />
    <path fill-rule="evenodd" clip-rule="evenodd"
        d="M26.0836 88.2312C26.118 87.7194 26.5608 87.3323 27.0727 87.3667L43.4666 88.4688C43.9784 88.5033 44.3654 88.9461 44.331 89.4579C44.2966 89.9698 43.8538 90.3568 43.3419 90.3224L26.9481 89.2203C26.4362 89.1859 26.0492 88.743 26.0836 88.2312Z"
        fill="white" />
    <path fill-rule="evenodd" clip-rule="evenodd"
        d="M32.1904 40.4224C32.5867 40.4414 32.9272 40.7099 33.038 41.0908L38.5485 60.0333C38.6918 60.5259 38.4087 61.0414 37.9161 61.1847C37.4235 61.328 36.908 61.0448 36.7647 60.5522L32.0097 44.2066L25.7766 59.8784C25.587 60.355 25.0469 60.5878 24.5702 60.3982C24.0935 60.2086 23.8608 59.6685 24.0504 59.1918L31.283 41.007C31.4296 40.6383 31.7941 40.4035 32.1904 40.4224Z"
        fill="white" />
    <path fill-rule="evenodd" clip-rule="evenodd"
        d="M36.2097 53.095C36.2097 53.608 35.7938 54.0239 35.2808 54.0239L27.5315 54.0239C27.0185 54.0239 26.6026 53.608 26.6026 53.095C26.6026 52.582 27.0185 52.1661 27.5315 52.1661L35.2808 52.1661C35.7938 52.1661 36.2097 52.582 36.2097 53.095Z"
        fill="white" />
    <path fill-rule="evenodd" clip-rule="evenodd"
        d="M42.5806 48.032V51.8269C42.8246 51.8365 43.0862 51.8636 43.3499 51.904C43.712 51.8747 44.108 51.8109 44.4819 51.6935C44.922 51.5554 45.2617 51.3644 45.4825 51.1351C45.6827 50.927 45.8202 50.6542 45.8202 50.236C45.8202 49.4235 45.3405 48.8787 44.4635 48.4928C43.8786 48.2355 43.1962 48.0938 42.5806 48.032ZM46.2661 52.8882C46.4629 52.7547 46.6501 52.6008 46.8209 52.4234C47.3504 51.8733 47.6779 51.1404 47.6779 50.236C47.6779 48.4035 46.4585 47.341 45.2117 46.7924C43.9849 46.2526 42.563 46.1136 41.6267 46.1389C41.1236 46.1525 40.7229 46.5642 40.7229 47.0675V60.4306C40.7229 60.8417 40.9931 61.2038 41.3871 61.321C42.3932 61.6201 44.0376 61.7294 45.5246 61.2562C46.2819 61.0152 47.0377 60.6103 47.6388 59.9618C48.2485 59.304 48.657 58.44 48.7745 57.3628C49.0198 55.1143 47.6852 53.6923 46.2661 52.8882ZM42.5806 53.7767C42.7891 53.7846 43.0167 53.7837 43.2559 53.7717C43.8146 53.8732 44.4624 54.0612 45.0597 54.3518C46.2791 54.9451 47.0731 55.8286 46.9277 57.1613C46.851 57.8644 46.5999 58.3499 46.2763 58.6989C45.9441 59.0573 45.4929 59.3167 44.9613 59.4859C44.1624 59.7402 43.2721 59.7616 42.5806 59.674V53.7767Z"
        fill="white" />
</svg>
