<svg width="18" height="18" viewBox="0 0 18 18" fill="none" xmlns="http://www.w3.org/2000/svg">
<path d="M2.5515 14.0837C2.59727 13.9152 2.49612 13.681 2.39958 13.5121C2.36952 13.4618 2.33692 13.413 2.30189 13.366C1.47392 12.1103 1.03261 10.6393 1.03266 9.13522C1.0192 4.81791 4.59919 1.31445 9.0261 1.31445C12.8869 1.31445 16.1095 3.98907 16.8626 7.53945C16.9755 8.06584 17.0324 8.60265 17.0326 9.14099C17.0326 13.4645 13.5907 17.0229 9.1638 17.0229C8.45995 17.0229 7.50995 16.846 6.99188 16.701C6.4738 16.556 5.9565 16.3637 5.82303 16.3121C5.68654 16.2597 5.54158 16.2327 5.39534 16.2325C5.23562 16.2319 5.07743 16.2637 4.93034 16.326L2.3215 17.2675C2.26435 17.2922 2.20379 17.308 2.14189 17.3145C2.09304 17.3143 2.04471 17.3045 1.99969 17.2855C1.95467 17.2665 1.91387 17.2388 1.87963 17.204C1.8454 17.1692 1.81841 17.1279 1.80025 17.0825C1.78209 17.0372 1.7731 16.9887 1.77381 16.9398C1.77702 16.897 1.78476 16.8545 1.79689 16.8133L2.5515 14.0837Z" stroke="#001133" stroke-miterlimit="10" stroke-linecap="round"/>
</svg>
